#define backstep_width 24
#define backstep_height 24
static unsigned char backstep_bits[] = {
   0x00, 0x00, 0x00, 0x00, 0x00, 0x00, 0x78, 0x80, 0x3f, 0x78, 0xc0, 0x3f,
   0x78, 0xe0, 0x3f, 0x78, 0xf0, 0x38, 0x78, 0x78, 0x38, 0x78, 0x3c, 0x38,
   0x78, 0x1e, 0x38, 0x78, 0x0f, 0x38, 0x78, 0x07, 0x38, 0x78, 0xe3, 0x3b,
   0x78, 0x07, 0x38, 0x78, 0x0f, 0x38, 0x78, 0x1e, 0x38, 0x78, 0x3c, 0x38,
   0x78, 0x78, 0x38, 0x78, 0xf0, 0x38, 0x78, 0xe0, 0x3f, 0x78, 0xc0, 0x3f,
   0x78, 0x80, 0x3f, 0x00, 0x00, 0x00, 0x00, 0x00, 0x00, 0x00, 0x00, 0x00};
