#define label_width 11
#define label_height 11
static unsigned char label_bits[] = {
   0x03, 0x00, 0x03, 0x00, 0x03, 0x00, 0x03, 0x00, 0x03, 0x00, 0x03, 0x00,
   0x03, 0x00, 0x03, 0x00, 0x03, 0x00, 0xff, 0x01, 0xff, 0x01};
