#define orbit_width 11
#define orbit_height 11
static unsigned char orbit_bits[] = {
   0x1c, 0x00, 0x22, 0x00, 0xc1, 0x00, 0x01, 0x01, 0x01, 0x01, 0x02, 0x02,
   0x04, 0x04, 0x84, 0x04, 0x18, 0x04, 0x20, 0x02, 0xc0, 0x01};
