#define run_width 24
#define run_height 24
static unsigned char run_bits[] = {
   0x00, 0x00, 0x00, 0x00, 0x00, 0x00, 0x1c, 0x00, 0x00, 0x7c, 0x00, 0x00,
   0xfc, 0x01, 0x00, 0xfc, 0x07, 0x00, 0xfc, 0x1f, 0x00, 0xfc, 0x7f, 0x00,
   0xfc, 0xff, 0x01, 0xfc, 0xff, 0x07, 0xfc, 0xff, 0x1f, 0xfc, 0xff, 0x7f,
   0xfc, 0xff, 0x1f, 0xfc, 0xff, 0x07, 0xfc, 0xff, 0x01, 0xfc, 0x7f, 0x00,
   0xfc, 0x1f, 0x00, 0xfc, 0x07, 0x00, 0xfc, 0x01, 0x00, 0x7c, 0x00, 0x00,
   0x1c, 0x00, 0x00, 0x00, 0x00, 0x00, 0x00, 0x00, 0x00, 0x00, 0x00, 0x00};
