#define step_width 24
#define step_height 24
static unsigned char step_bits[] = {
   0x00, 0x00, 0x00, 0x00, 0x00, 0x00, 0xfc, 0x01, 0x1e, 0xfc, 0x03, 0x1e,
   0xfc, 0x07, 0x1e, 0x1c, 0x0f, 0x1e, 0x1c, 0x1e, 0x1e, 0x1c, 0x3c, 0x1e,
   0x1c, 0x78, 0x1e, 0x1c, 0xf1, 0x1e, 0x1c, 0xe1, 0x1e, 0xdc, 0xc7, 0x1e,
   0x1c, 0xe1, 0x1e, 0x1c, 0xf1, 0x1e, 0x1c, 0x78, 0x1e, 0x1c, 0x3c, 0x1e,
   0x1c, 0x1e, 0x1e, 0x1c, 0x0f, 0x1e, 0xfc, 0x07, 0x1e, 0xfc, 0x03, 0x1e,
   0xfc, 0x01, 0x1e, 0x00, 0x00, 0x00, 0x00, 0x00, 0x00, 0x00, 0x00, 0x00};
