#define texture_width 11
#define texture_height 11
static unsigned char texture_bits[] = {
   0xf8, 0x00, 0x06, 0x03, 0x02, 0x02, 0xff, 0x07, 0x01, 0x04, 0x01, 0x04,
   0x33, 0x07, 0xff, 0x05, 0x02, 0x02, 0x06, 0x03, 0xf8, 0x00};
