#define wire_width 11
#define wire_height 11
static unsigned char wire_bits[] = {
   0xf8, 0x00, 0x26, 0x03, 0x26, 0x03, 0xff, 0x07, 0x25, 0x05, 0x25, 0x05,
   0x25, 0x05, 0xff, 0x07, 0x26, 0x03, 0x26, 0x03, 0xf8, 0x00};
